<svg preserveAspectRatio="xMidYMid meet" data-bbox="0.7 0.3 435.5 196" height="180" width="400" viewBox="0.7 0.3 435.5 196" xmlns="http://www.w3.org/2000/svg" data-type="color" role="presentation" aria-hidden="true">
    <g>
        <path d="M124.5 196.3v-82H48.1v82H25.7c-13.8 0-25-11.2-25-25v-146c0-13.8 11.2-25 25-25h22.4v74.2h76.4V.3h47.3v196z" fill="#47f7b3" data-color="1"></path>
        <path d="m390 196.3 1.1-138.7h-.8l-51 138.7h-33.2L256.5 57.6h-.8l1.1 138.7h-44.6V.3h67.3L324.1 126h1.1L367.8.3h43.4c13.8 0 25 11.2 25 25v146c0 13.8-11.2 25-25 25H390z" fill="#47f7b3" data-color="1"></path>
    </g>
</svg>