<svg version="1.2" xmlns="http://www.w3.org/2000/svg" viewBox="40 0 172 172" width="238" height="172">
	<title>menu-icon-svg</title>
	<style>
		.s0 { fill: #1836a7 }
	</style>
	<g id="Layer">
		<g id="Layer">
			<g id="Layer">
				<path id="Layer" fill-rule="evenodd" class="s0" d="m194.6 116.2c-0.2 12.9-10.4 22.6-23.2 22.7q-52.3 0.2-104.5 0c-13.2-0.1-23.3-10.3-23.4-23.4-0.1-19-0.1-38 0-57.1 0.1-13.5 10.4-23.5 23.9-23.6 8-0.1 16.1-0.1 24.7-0.1-1.2-7.9-2.4-15.3-3.6-23 5.7 0 11 0 16.7 0 4.5 31.5 9 62.9 13.4 94.3q0.5 0 1 0.1c4.4-31.4 8.9-62.7 13.4-94.3 5.6 0 11 0 16.7 0-1.2 7.6-2.4 15-3.6 22.9 5 0.1 9.7 0.1 14.3 0.1 3.6 0 7.2-0.1 10.8 0 12.7 0.1 23.1 9.7 23.4 22.5 0.4 19.6 0.4 39.3 0 58.9zm-88.1 7.1c-4-24.4-7.9-48.6-11.9-73.2-9.2 0-17.8-0.1-26.5 0-6 0.1-9.2 3.3-9.3 9.3q-0.1 27.5 0 55.1c0.1 6 3.3 9.1 9.4 9.1 11.7 0.1 23.5 0 35.2 0 0.9 0 1.7-0.1 3.1-0.3zm72.8-63.6c0-6.5-3.1-9.6-9.7-9.6-7.4-0.1-14.8 0.2-22.1-0.1-3.5-0.2-4.3 1.2-4.7 4.2-2.4 15.4-4.9 30.7-7.4 46.1-1.2 7.6-2.4 15.2-3.7 23.1 1.5 0.1 2.5 0.2 3.5 0.2q17.2 0.1 34.4 0c6.6 0 9.7-3 9.7-9.6q0.1-27.1 0-54.3z"/>
				<path id="Layer" class="s0" d="m226.5 132.7c0-2.4-0.9-3.2-3.2-3.1q-4.5 0.2-9.1 0.1c-2.4-0.2-3.1 0.9-3.1 3.1 0.1 4.7-0.1 9.5 0.1 14.2 0.1 2.7-0.9 3.6-3.6 3.5-4.7-0.1-9.4 0-14.1-0.1-2.3 0-3.3 0.8-3.2 3.1q0.3 4.6 0 9.2c-0.1 2.3 0.8 3.2 3.1 3.1 5-0.1 9.9 0 14.9 0 5 0 10-0.1 14.9 0 2.1 0.1 3.3-0.4 3.3-2.9q-0.1-15.1 0-30.2z"/>
				<path id="Layer" class="s0" d="m11.7 24c0 5.1 0.1 10.2 0 15.3-0.1 2.3 0.8 3.2 3.1 3.1q4.6-0.2 9.2 0c2.3 0.1 3.1-0.9 3.1-3.2-0.1-4.7 0.1-9.4-0.1-14.1-0.1-2.6 0.8-3.7 3.5-3.6 4.5 0.2 8.9-0.1 13.4 0.1 2.9 0.1 4.3-0.6 4-3.8-0.3-2.7-0.2-5.4 0-8 0.2-2.6-0.7-3.6-3.4-3.6-9.9 0.1-19.7 0.1-29.5 0-2.4 0-3.4 0.7-3.3 3.3 0.1 4.8 0 9.6 0 14.5z"/>
				<path id="Layer" class="s0" d="m193.9 21.6c4.5-0.2 9 0.1 13.4-0.1 3.1-0.2 4 1.1 3.9 4-0.2 4.6 0 9.2-0.1 13.8 0 2.3 0.8 3.2 3.1 3.1q4.6-0.2 9.2 0c2.3 0.1 3.2-0.8 3.1-3.1-0.1-4.9 0-9.7 0-14.6 0-5.1-0.1-10.2 0-15.3 0.1-2.1-0.5-3.2-2.9-3.2q-15.1 0.1-30.2 0c-2.5 0-3.1 1-3 3.2 0.1 2.9 0.1 5.9-0.1 8.8-0.2 2.8 1.1 3.5 3.6 3.4z"/>
				<path id="Layer" class="s0" d="m47.9 153.5c0.1-2.4-0.9-3.1-3.2-3.1-4.8 0.1-9.7 0-14.5 0.1-2.3 0-3.2-0.9-3.2-3.2 0.1-4.8 0-9.6 0.1-14.5 0-2.2-0.7-3.2-3.1-3.1q-4.6 0.1-9.1 0c-2.3-0.1-3.3 0.6-3.2 3q0.1 15.1 0 30.2c0 2.1 0.8 3 2.9 2.9 5.1-0.1 10.2 0 15.3 0 5 0 9.9-0.1 14.9 0 2.3 0.1 3.2-0.8 3.1-3.1q-0.2-4.6 0-9.2z"/>
			</g>
		</g>
	</g>
</svg>