<?xml version="1.0" encoding="utf-8"?>
<!-- Generator: Adobe Illustrator 25.2.0, SVG Export Plug-In . SVG Version: 6.00 Build 0)  -->
<svg version="1.1" id="Layer_1" xmlns="http://www.w3.org/2000/svg"
	xmlns:xlink="http://www.w3.org/1999/xlink" x="0px" y="0px"
	viewBox="0 0 1080 1080" style="enable-background:new 0 0 1080 1080;" xml:space="preserve">
<style type="text/css">
	.st0{fill:#FFFFFF;}
	.st1{fill:#63006E;}
	.st2{fill:#607be8;}
	.st3{fill:#FFFFFF;}
	.st4{fill-rule:evenodd;clip-rule:evenodd;fill:#FFE64D;}
	.st5{clip-path:url(#SVGID_2_);fill:url(#SVGID_3_);}
	.st6{opacity:0.3;fill-rule:evenodd;clip-rule:evenodd;fill:#FFFFFF;}
	.st7{opacity:0.3;fill-rule:evenodd;clip-rule:evenodd;fill:#FFFFFF;}
	.st8{clip-path:url(#SVGID_5_);fill:url(#SVGID_6_);}
	.st9{opacity:0.3;fill-rule:evenodd;clip-rule:evenodd;fill:#870000;}
	.st10{opacity:0.3;fill-rule:evenodd;clip-rule:evenodd;fill:#FFFF00;}
	.st11{fill-rule:evenodd;clip-rule:evenodd;fill:#E683FF;}
	.st12{fill:none;}
	.st13{clip-path:url(#SVGID_8_);fill:url(#SVGID_9_);}
	.st14{clip-path:url(#SVGID_11_);fill:url(#SVGID_12_);}
</style>
<text transform="matrix(1 0 0 1 -5088.5 -131.2734)" style="font-family:'MyriadPro-Regular'; font-size:147.9899px;">VIDOC</text>
<rect x="-5091" y="1156" class="st0" width="1018" height="1068"/>
<rect x="-4073" y="1156" class="st1" width="494" height="1068"/>
<rect x="-2792" y="20" class="st0" width="1018" height="1068"/>
<rect x="-1774" y="20" class="st2" width="494" height="1068"/>
<g>
	<g>
		<path class="st3" d="M-2311.02,562.74l20.31-50.77h19.28l-32.06,79.74h-15.06l-32.06-79.74h19.28L-2311.02,562.74z"/>
		<path class="st3" d="M-2261.97,511.98h17.8v79.74h-17.8V511.98z"/>
		<path class="st3" d="M-2163.63,522.41c7.6,6.96,11.41,16.64,11.41,29.03c0,12.4-3.71,22.21-11.12,29.43
			c-7.42,7.23-18.73,10.84-33.94,10.84h-27.27v-79.74h28.18C-2182.15,511.98-2171.24,515.46-2163.63,522.41z M-2176.69,569.81
			c4.37-4.11,6.56-10.08,6.56-17.91c0-7.83-2.19-13.86-6.56-18.08c-4.37-4.22-11.08-6.33-20.13-6.33h-9.92v48.48h11.29
			C-2187.32,575.97-2181.07,573.92-2176.69,569.81z"/>
		<path class="st3" d="M-2069.74,580.71c-8.06,7.87-17.99,11.81-29.77,11.81c-11.79,0-21.71-3.94-29.78-11.81
			c-8.06-7.87-12.09-17.66-12.09-29.38c0-11.71,4.03-21.5,12.09-29.38c8.06-7.87,17.99-11.81,29.78-11.81
			c11.79,0,21.71,3.94,29.77,11.81c8.06,7.87,12.09,17.66,12.09,29.38C-2057.65,563.05-2061.68,572.84-2069.74,580.71z
			 M-2075.79,551.39c0-7.11-2.28-13.18-6.84-18.2c-4.56-5.02-10.17-7.53-16.83-7.53c-6.66,0-12.26,2.51-16.83,7.53
			c-4.56,5.02-6.84,11.09-6.84,18.2c0,7.11,2.28,13.16,6.84,18.14c4.56,4.98,10.17,7.47,16.83,7.47c6.65,0,12.26-2.49,16.83-7.47
			C-2078.07,564.55-2075.79,558.5-2075.79,551.39z"/>
		<path class="st3" d="M-2005.97,575.97c8.74,0,15.89-3.46,21.45-10.38l11.41,11.75c-9.05,10.19-19.72,15.29-32,15.29
			c-12.28,0-22.4-3.88-30.35-11.64c-7.95-7.76-11.92-17.55-11.92-29.38c0-11.82,4.05-21.69,12.15-29.6
			c8.1-7.91,18-11.86,29.72-11.86c13.08,0,24.03,4.98,32.85,14.94l-11.07,12.55c-5.63-7-12.62-10.5-20.99-10.5
			c-6.69,0-12.42,2.19-17.17,6.56c-4.75,4.37-7.13,10.27-7.13,17.68s2.24,13.37,6.73,17.85
			C-2017.8,573.73-2012.36,575.97-2005.97,575.97z"/>
	</g>
	<g>
		<g>
			<path class="st2" d="M-2410.4,525.29c-0.26-12.82-10.67-22.35-23.45-22.53c-3.57-0.05-7.14-0.01-10.72-0.01
				c-4.68,0-9.37,0-14.37,0c1.24-7.92,2.41-15.32,3.61-22.97c-5.68,0-11.08,0-16.65,0c-4.51,31.6-8.99,62.94-13.46,94.29
				c-0.31-0.04-0.62-0.07-0.94-0.11c-4.47-31.39-8.95-62.77-13.43-94.21c-5.72,0-11.01,0-16.65,0c1.2,7.68,2.35,15.06,3.59,23
				c-8.68,0-16.7-0.05-24.72,0.01c-13.55,0.1-23.82,10.18-23.9,23.69c-0.11,19.01-0.13,38.02,0.01,57.03
				c0.09,13.14,10.21,23.35,23.35,23.4c34.83,0.12,69.66,0.13,104.49,0c12.85-0.05,23.05-9.79,23.27-22.66
				C-2410.03,564.59-2410,544.93-2410.4,525.29z M-2501.61,591.62c-11.73,0.02-23.46,0.05-35.19-0.01
				c-6.06-0.03-9.32-3.14-9.35-9.14c-0.08-18.36-0.07-36.72,0-55.08c0.02-6.03,3.28-9.23,9.25-9.29c8.66-0.08,17.31-0.02,26.55-0.02
				c3.97,24.6,7.88,48.83,11.82,73.25C-2499.87,591.46-2500.74,591.61-2501.61,591.62z M-2425.73,582.03
				c-0.02,6.58-3.06,9.56-9.64,9.58c-11.47,0.04-22.94,0.02-34.42,0c-1,0-1.99-0.14-3.47-0.25c1.24-7.85,2.42-15.48,3.65-23.11
				c2.47-15.34,5.02-30.68,7.38-46.04c0.46-2.98,1.27-4.38,4.7-4.24c7.38,0.3,14.78,0.06,22.17,0.11c6.52,0.04,9.62,3.1,9.63,9.64
				C-2425.68,545.83-2425.67,563.93-2425.73,582.03z"/>
			<path class="st2" d="M-2378.48,600.69c0.02-2.36-0.9-3.15-3.17-3.05c-3.05,0.14-6.12,0.14-9.17,0.01
				c-2.39-0.11-3.1,0.93-3.05,3.18c0.11,4.71-0.08,9.43,0.07,14.14c0.09,2.69-0.94,3.61-3.58,3.53c-4.71-0.14-9.43,0.05-14.14-0.07
				c-2.3-0.06-3.24,0.73-3.13,3.08c0.14,3.05,0.13,6.12-0.01,9.17c-0.1,2.3,0.75,3.19,3.08,3.14c4.97-0.11,9.94-0.03,14.9-0.03
				c4.97,0,9.94-0.06,14.9,0.03c2.13,0.04,3.31-0.43,3.29-2.93C-2378.56,620.82-2378.56,610.76-2378.48,600.69z"/>
			<path class="st2" d="M-2593.29,491.99c0,5.1,0.07,10.19-0.03,15.29c-0.04,2.3,0.82,3.2,3.14,3.1c3.05-0.14,6.12-0.15,9.17,0
				c2.36,0.11,3.15-0.87,3.1-3.14c-0.1-4.71,0.09-9.43-0.06-14.14c-0.08-2.62,0.79-3.68,3.5-3.58c4.45,0.16,8.92-0.09,13.37,0.09
				c2.88,0.12,4.3-0.63,4-3.82c-0.25-2.65-0.19-5.36-0.01-8.02c0.17-2.61-0.7-3.62-3.43-3.59c-9.81,0.12-19.62,0.1-29.43,0.01
				c-2.43-0.02-3.43,0.74-3.36,3.28C-2593.19,482.3-2593.29,487.14-2593.29,491.99z"/>
			<path class="st2" d="M-2411.05,489.59c4.45-0.15,8.93,0.14,13.37-0.09c3.13-0.16,4.01,1.06,3.89,4
				c-0.18,4.58,0.04,9.17-0.08,13.76c-0.06,2.31,0.77,3.22,3.11,3.11c3.05-0.14,6.12-0.13,9.17,0c2.33,0.1,3.17-0.81,3.12-3.11
				c-0.11-4.84-0.03-9.68-0.03-14.53c0-5.1-0.06-10.19,0.03-15.29c0.04-2.16-0.51-3.28-2.98-3.25c-10.06,0.09-20.13,0.1-30.2,0
				c-2.43-0.02-3.09,1-3,3.21c0.12,2.93,0.19,5.87-0.02,8.79C-2414.85,489.02-2413.59,489.67-2411.05,489.59z"/>
			<path class="st2" d="M-2557.13,621.49c0.11-2.37-0.89-3.12-3.16-3.07c-4.84,0.11-9.68-0.04-14.52,0.06
				c-2.3,0.05-3.2-0.83-3.15-3.13c0.1-4.84-0.06-9.68,0.05-14.52c0.05-2.27-0.68-3.27-3.06-3.17c-3.05,0.13-6.12,0.12-9.17,0
				c-2.25-0.09-3.22,0.66-3.2,3.04c0.08,10.06,0.07,20.13,0.02,30.2c-0.01,2.11,0.77,2.96,2.92,2.92
				c5.09-0.09,10.19-0.03,15.29-0.03c4.97,0,9.94-0.07,14.91,0.03c2.33,0.05,3.18-0.84,3.08-3.15
				C-2557.26,627.61-2557.27,624.54-2557.13,621.49z"/>
			<path class="st2" d="M-2440.88,524.07c-5.18-0.16-9.36,3.78-9.45,8.9c-0.09,5.03,4.14,9.29,9.18,9.26
				c4.96-0.03,8.93-3.99,8.99-8.97C-2432.1,528.16-2435.84,524.22-2440.88,524.07z"/>
		</g>
	</g>
</g>
<g>
	<g>
		<path class="st3" d="M-614.02,548.74l20.31-50.77h19.28l-32.06,79.74h-15.06l-32.06-79.74h19.28L-614.02,548.74z"/>
		<path class="st3" d="M-564.97,497.98h17.8v79.74h-17.8V497.98z"/>
		<path class="st3" d="M-466.63,508.41c7.6,6.96,11.41,16.64,11.41,29.03c0,12.4-3.71,22.21-11.12,29.43
			c-7.42,7.23-18.73,10.84-33.94,10.84h-27.27v-79.74h28.18C-485.15,497.98-474.24,501.46-466.63,508.41z M-479.69,555.81
			c4.37-4.11,6.56-10.08,6.56-17.91c0-7.83-2.19-13.86-6.56-18.08c-4.37-4.22-11.08-6.33-20.13-6.33h-9.92v48.48h11.29
			C-490.32,561.97-484.07,559.92-479.69,555.81z"/>
		<path class="st3" d="M-372.74,566.71c-8.06,7.87-17.99,11.81-29.77,11.81c-11.79,0-21.71-3.94-29.78-11.81
			c-8.06-7.87-12.09-17.66-12.09-29.38c0-11.71,4.03-21.5,12.09-29.38c8.06-7.87,17.99-11.81,29.78-11.81
			c11.79,0,21.71,3.94,29.77,11.81c8.06,7.87,12.09,17.66,12.09,29.38C-360.65,549.05-364.68,558.84-372.74,566.71z M-378.79,537.39
			c0-7.11-2.28-13.18-6.84-18.2c-4.56-5.02-10.17-7.53-16.83-7.53c-6.66,0-12.26,2.51-16.83,7.53c-4.56,5.02-6.84,11.09-6.84,18.2
			c0,7.11,2.28,13.16,6.84,18.14c4.56,4.98,10.17,7.47,16.83,7.47c6.65,0,12.26-2.49,16.83-7.47
			C-381.07,550.55-378.79,544.5-378.79,537.39z"/>
		<path class="st3" d="M-308.97,561.97c8.74,0,15.89-3.46,21.45-10.38l11.41,11.75c-9.05,10.19-19.72,15.29-32,15.29
			c-12.28,0-22.4-3.88-30.35-11.64c-7.95-7.76-11.92-17.55-11.92-29.38c0-11.82,4.05-21.69,12.15-29.6
			c8.1-7.91,18-11.86,29.72-11.86c13.08,0,24.03,4.98,32.85,14.94l-11.07,12.55c-5.63-7-12.62-10.5-20.99-10.5
			c-6.69,0-12.42,2.19-17.17,6.56c-4.75,4.37-7.13,10.27-7.13,17.68s2.24,13.37,6.73,17.85
			C-320.8,559.73-315.36,561.97-308.97,561.97z"/>
	</g>
	<g>
		<g>
			<path class="st2" d="M-713.4,511.29c-0.26-12.82-10.67-22.35-23.45-22.53c-3.57-0.05-7.14-0.01-10.72-0.01
				c-4.68,0-9.37,0-14.37,0c1.24-7.92,2.41-15.32,3.61-22.97c-5.68,0-11.08,0-16.65,0c-4.51,31.6-8.99,62.94-13.46,94.29
				c-0.31-0.04-0.62-0.07-0.94-0.11c-4.47-31.39-8.95-62.77-13.43-94.21c-5.72,0-11.01,0-16.65,0c1.2,7.68,2.35,15.06,3.59,23
				c-8.68,0-16.7-0.05-24.72,0.01c-13.55,0.1-23.82,10.18-23.9,23.69c-0.11,19.01-0.13,38.02,0.01,57.03
				c0.09,13.14,10.21,23.35,23.35,23.4c34.83,0.12,69.66,0.13,104.49,0c12.85-0.05,23.05-9.79,23.27-22.66
				C-713.03,550.59-713,530.93-713.4,511.29z M-804.61,577.62c-11.73,0.02-23.46,0.05-35.19-0.01c-6.06-0.03-9.32-3.14-9.35-9.14
				c-0.08-18.36-0.07-36.72,0-55.08c0.02-6.03,3.28-9.23,9.25-9.29c8.66-0.08,17.31-0.02,26.55-0.02
				c3.97,24.6,7.88,48.83,11.82,73.25C-802.87,577.46-803.74,577.61-804.61,577.62z M-728.73,568.03c-0.02,6.58-3.06,9.56-9.64,9.58
				c-11.47,0.04-22.94,0.02-34.42,0c-1,0-1.99-0.14-3.47-0.25c1.24-7.85,2.42-15.48,3.65-23.11c2.47-15.34,5.02-30.68,7.38-46.04
				c0.46-2.98,1.27-4.38,4.7-4.24c7.38,0.3,14.78,0.06,22.17,0.11c6.52,0.04,9.62,3.1,9.63,9.64
				C-728.68,531.83-728.67,549.93-728.73,568.03z"/>
			<path class="st2" d="M-681.48,586.69c0.02-2.36-0.89-3.15-3.17-3.05c-3.05,0.14-6.12,0.14-9.17,0.01
				c-2.39-0.11-3.1,0.93-3.05,3.18c0.11,4.71-0.08,9.43,0.07,14.14c0.09,2.69-0.94,3.61-3.58,3.53c-4.71-0.14-9.43,0.05-14.14-0.07
				c-2.3-0.06-3.24,0.73-3.13,3.08c0.14,3.05,0.13,6.12-0.01,9.17c-0.1,2.3,0.75,3.19,3.08,3.14c4.97-0.11,9.93-0.03,14.9-0.03
				c4.97,0,9.94-0.06,14.9,0.03c2.13,0.04,3.31-0.43,3.29-2.93C-681.56,606.82-681.56,596.76-681.48,586.69z"/>
			<path class="st2" d="M-896.29,477.99c0,5.1,0.07,10.19-0.03,15.29c-0.04,2.3,0.82,3.2,3.14,3.1c3.05-0.14,6.12-0.15,9.17,0
				c2.36,0.11,3.15-0.87,3.1-3.14c-0.1-4.71,0.09-9.43-0.06-14.14c-0.08-2.62,0.79-3.68,3.5-3.58c4.45,0.16,8.92-0.09,13.37,0.09
				c2.88,0.12,4.3-0.63,4-3.82c-0.25-2.65-0.19-5.36-0.01-8.02c0.17-2.61-0.7-3.62-3.43-3.59c-9.81,0.12-19.62,0.1-29.43,0.01
				c-2.43-0.02-3.43,0.74-3.36,3.28C-896.19,468.3-896.29,473.14-896.29,477.99z"/>
			<path class="st2" d="M-714.05,475.59c4.45-0.15,8.93,0.14,13.37-0.09c3.13-0.16,4.01,1.06,3.89,4
				c-0.18,4.58,0.04,9.17-0.08,13.76c-0.06,2.31,0.77,3.22,3.11,3.11c3.05-0.14,6.12-0.13,9.17,0c2.33,0.1,3.17-0.81,3.12-3.11
				c-0.11-4.84-0.03-9.68-0.03-14.53c0-5.1-0.06-10.19,0.03-15.29c0.04-2.16-0.51-3.28-2.98-3.25c-10.06,0.09-20.13,0.1-30.2,0
				c-2.43-0.02-3.09,1-3,3.21c0.12,2.93,0.19,5.87-0.01,8.79C-717.85,475.02-716.59,475.67-714.05,475.59z"/>
			<path class="st2" d="M-860.13,607.49c0.11-2.37-0.89-3.12-3.16-3.07c-4.84,0.11-9.68-0.04-14.52,0.06
				c-2.3,0.05-3.2-0.83-3.15-3.13c0.1-4.84-0.06-9.68,0.05-14.52c0.05-2.27-0.68-3.27-3.06-3.17c-3.05,0.13-6.12,0.12-9.17,0
				c-2.25-0.09-3.22,0.66-3.2,3.04c0.08,10.06,0.07,20.13,0.02,30.2c-0.01,2.11,0.77,2.96,2.92,2.92
				c5.09-0.09,10.19-0.03,15.29-0.03c4.97,0,9.94-0.07,14.91,0.03c2.33,0.05,3.18-0.84,3.08-3.15
				C-860.26,613.61-860.27,610.54-860.13,607.49z"/>
			<path class="st2" d="M-743.88,510.07c-5.18-0.16-9.36,3.78-9.45,8.9c-0.09,5.03,4.14,9.29,9.18,9.26
				c4.96-0.03,8.93-3.99,8.99-8.97C-735.1,514.16-738.84,510.22-743.88,510.07z"/>
		</g>
	</g>
</g>
<g>
	<g>
		<g>
			<path class="st0" d="M-1420.89,513.65c-0.37-18.02-14.99-31.41-32.97-31.66c-5.02-0.07-10.04-0.01-15.06-0.01
				c-6.58,0-13.17,0-20.19,0c1.75-11.14,3.38-21.53,5.07-32.28c-7.98,0-15.57,0-23.41,0c-6.34,44.41-12.63,88.47-18.92,132.52
				c-0.44-0.05-0.88-0.1-1.32-0.15c-6.29-44.12-12.58-88.23-18.88-132.42c-8.04,0-15.48,0-23.4,0c1.68,10.79,3.3,21.17,5.04,32.33
				c-12.2,0-23.47-0.07-34.74,0.01c-19.04,0.14-33.48,14.31-33.59,33.3c-0.16,26.72-0.18,53.44,0.01,80.16
				c0.13,18.47,14.34,32.82,32.82,32.89c48.95,0.17,97.91,0.18,146.87,0c18.06-0.07,32.39-13.76,32.71-31.84
				C-1420.36,568.89-1420.32,541.25-1420.89,513.65z M-1549.07,606.87c-16.48,0.02-32.97,0.07-49.45-0.01
				c-8.51-0.04-13.11-4.41-13.14-12.85c-0.12-25.8-0.1-51.61,0-77.41c0.03-8.47,4.61-12.98,13-13.05
				c12.17-0.11,24.34-0.03,37.32-0.03c5.58,34.58,11.08,68.63,16.62,102.95C-1546.63,606.65-1547.85,606.87-1549.07,606.87z
				 M-1442.43,593.4c-0.03,9.25-4.31,13.44-13.54,13.47c-16.12,0.06-32.25,0.03-48.37,0.01c-1.4,0-2.8-0.19-4.87-0.35
				c1.74-11.03,3.4-21.76,5.13-32.48c3.47-21.57,7.06-43.11,10.37-64.7c0.64-4.19,1.79-6.16,6.6-5.96
				c10.37,0.43,20.78,0.09,31.17,0.15c9.16,0.05,13.52,4.36,13.54,13.55C-1442.35,542.51-1442.35,567.95-1442.43,593.4z"/>
			<path class="st0" d="M-1376.02,619.63c0.03-3.32-1.26-4.42-4.46-4.28c-4.29,0.19-8.6,0.2-12.89,0.01
				c-3.36-0.15-4.35,1.31-4.28,4.46c0.15,6.62-0.11,13.25,0.1,19.87c0.12,3.78-1.32,5.07-5.03,4.96c-6.62-0.2-13.25,0.07-19.87-0.09
				c-3.23-0.08-4.55,1.02-4.4,4.33c0.19,4.29,0.18,8.6-0.01,12.89c-0.14,3.24,1.05,4.49,4.33,4.41c6.98-0.16,13.96-0.05,20.95-0.05
				c6.98,0,13.97-0.08,20.95,0.04c2.99,0.05,4.66-0.61,4.62-4.11C-1376.13,647.92-1376.13,633.77-1376.02,619.63z"/>
			<path class="st0" d="M-1677.94,466.84c0,7.16,0.09,14.33-0.04,21.49c-0.06,3.24,1.15,4.5,4.41,4.35c4.29-0.2,8.6-0.2,12.89-0.01
				c3.32,0.15,4.42-1.22,4.36-4.41c-0.14-6.62,0.12-13.25-0.09-19.87c-0.12-3.69,1.12-5.17,4.92-5.03
				c6.26,0.23,12.54-0.12,18.8,0.13c4.04,0.17,6.04-0.88,5.62-5.37c-0.35-3.73-0.26-7.53-0.02-11.27c0.24-3.67-0.99-5.09-4.82-5.04
				c-13.78,0.17-27.57,0.14-41.36,0.01c-3.42-0.03-4.82,1.05-4.72,4.6C-1677.8,453.23-1677.94,460.03-1677.94,466.84z"/>
			<path class="st0" d="M-1421.79,463.47c6.26-0.21,12.55,0.2,18.8-0.13c4.4-0.23,5.63,1.49,5.47,5.62
				c-0.26,6.44,0.05,12.89-0.12,19.34c-0.08,3.25,1.09,4.52,4.37,4.37c4.29-0.19,8.6-0.19,12.89,0c3.27,0.15,4.46-1.14,4.39-4.37
				c-0.15-6.8-0.05-13.61-0.05-20.42c0-7.16-0.08-14.33,0.04-21.49c0.05-3.03-0.72-4.6-4.18-4.57c-14.15,0.13-28.29,0.13-42.44,0.01
				c-3.41-0.03-4.34,1.4-4.21,4.52c0.17,4.11,0.26,8.25-0.02,12.35C-1427.14,462.66-1425.36,463.59-1421.79,463.47z"/>
			<path class="st0" d="M-1627.11,648.86c0.15-3.34-1.25-4.38-4.44-4.31c-6.8,0.15-13.61-0.06-20.41,0.08
				c-3.24,0.07-4.49-1.16-4.43-4.41c0.13-6.8-0.08-13.61,0.08-20.41c0.07-3.19-0.96-4.6-4.29-4.45c-4.29,0.19-8.6,0.17-12.89,0
				c-3.16-0.13-4.53,0.93-4.5,4.27c0.12,14.15,0.1,28.29,0.03,42.44c-0.02,2.97,1.08,4.16,4.1,4.1c7.16-0.13,14.32-0.04,21.49-0.04
				c6.98,0,13.97-0.1,20.95,0.05c3.27,0.07,4.48-1.19,4.33-4.43C-1627.3,657.46-1627.3,653.15-1627.11,648.86z"/>
			<path class="st0" d="M-1463.72,511.93c-7.28-0.22-13.16,5.31-13.28,12.51c-0.12,7.07,5.82,13.06,12.9,13.01
				c6.97-0.05,12.55-5.61,12.63-12.61C-1451.38,517.68-1456.64,512.14-1463.72,511.93z"/>
		</g>
	</g>
</g>
<rect x="-2792" y="1127" class="st0" width="1018" height="1068"/>
<rect x="-1774" y="1127" class="st2" width="494" height="1068"/>
<g>
	<g>
		<path class="st3" d="M-2311.02,1669.74l20.31-50.77h19.28l-32.06,79.74h-15.06l-32.06-79.74h19.28L-2311.02,1669.74z"/>
		<path class="st3" d="M-2261.97,1618.98h17.8v79.74h-17.8V1618.98z"/>
		<path class="st3" d="M-2163.63,1629.41c7.6,6.96,11.41,16.64,11.41,29.03c0,12.4-3.71,22.21-11.12,29.43
			c-7.42,7.23-18.73,10.84-33.94,10.84h-27.27v-79.74h28.18C-2182.15,1618.98-2171.24,1622.46-2163.63,1629.41z M-2176.69,1676.81
			c4.37-4.11,6.56-10.08,6.56-17.91c0-7.83-2.19-13.86-6.56-18.08c-4.37-4.22-11.08-6.33-20.13-6.33h-9.92v48.48h11.29
			C-2187.32,1682.97-2181.07,1680.92-2176.69,1676.81z"/>
		<path class="st3" d="M-2069.74,1687.71c-8.06,7.87-17.99,11.81-29.77,11.81c-11.79,0-21.71-3.94-29.78-11.81
			c-8.06-7.87-12.09-17.66-12.09-29.38c0-11.71,4.03-21.5,12.09-29.38c8.06-7.87,17.99-11.81,29.78-11.81
			c11.79,0,21.71,3.94,29.77,11.81c8.06,7.87,12.09,17.66,12.09,29.38C-2057.65,1670.05-2061.68,1679.84-2069.74,1687.71z
			 M-2075.79,1658.39c0-7.11-2.28-13.18-6.84-18.2c-4.56-5.02-10.17-7.53-16.83-7.53c-6.66,0-12.26,2.51-16.83,7.53
			c-4.56,5.02-6.84,11.09-6.84,18.2c0,7.11,2.28,13.16,6.84,18.14c4.56,4.98,10.17,7.47,16.83,7.47c6.65,0,12.26-2.49,16.83-7.47
			C-2078.07,1671.55-2075.79,1665.5-2075.79,1658.39z"/>
		<path class="st3" d="M-2005.97,1682.97c8.74,0,15.89-3.46,21.45-10.38l11.41,11.75c-9.05,10.19-19.72,15.29-32,15.29
			c-12.28,0-22.4-3.88-30.35-11.64c-7.95-7.76-11.92-17.55-11.92-29.38c0-11.82,4.05-21.69,12.15-29.6
			c8.1-7.91,18-11.86,29.72-11.86c13.08,0,24.03,4.98,32.85,14.94l-11.07,12.55c-5.63-7-12.62-10.5-20.99-10.5
			c-6.69,0-12.42,2.19-17.17,6.56c-4.75,4.37-7.13,10.27-7.13,17.68s2.24,13.37,6.73,17.85
			C-2017.8,1680.73-2012.36,1682.97-2005.97,1682.97z"/>
	</g>
	<g>
		<g>
			<path class="st2" d="M-2410.4,1632.29c-0.26-12.82-10.67-22.35-23.45-22.53c-3.57-0.05-7.14-0.01-10.72-0.01
				c-4.68,0-9.37,0-14.37,0c1.24-7.92,2.41-15.32,3.61-22.97c-5.68,0-11.08,0-16.65,0c-4.51,31.6-8.99,62.94-13.46,94.29
				c-0.31-0.04-0.62-0.07-0.94-0.11c-4.47-31.39-8.95-62.77-13.43-94.21c-5.72,0-11.01,0-16.65,0c1.2,7.68,2.35,15.06,3.59,23
				c-8.68,0-16.7-0.05-24.72,0.01c-13.55,0.1-23.82,10.18-23.9,23.69c-0.11,19.01-0.13,38.02,0.01,57.03
				c0.09,13.14,10.21,23.35,23.35,23.4c34.83,0.12,69.66,0.13,104.49,0c12.85-0.05,23.05-9.79,23.27-22.66
				C-2410.03,1671.59-2410,1651.93-2410.4,1632.29z M-2501.61,1698.62c-11.73,0.02-23.46,0.05-35.19-0.01
				c-6.06-0.03-9.32-3.14-9.35-9.14c-0.08-18.36-0.07-36.72,0-55.08c0.02-6.03,3.28-9.23,9.25-9.29c8.66-0.08,17.31-0.02,26.55-0.02
				c3.97,24.6,7.88,48.83,11.82,73.25C-2499.87,1698.46-2500.74,1698.61-2501.61,1698.62z M-2425.73,1689.03
				c-0.02,6.58-3.06,9.56-9.64,9.58c-11.47,0.04-22.94,0.02-34.42,0c-1,0-1.99-0.14-3.47-0.25c1.24-7.85,2.42-15.48,3.65-23.11
				c2.47-15.34,5.02-30.68,7.38-46.04c0.46-2.98,1.27-4.38,4.7-4.24c7.38,0.3,14.78,0.06,22.17,0.11c6.52,0.04,9.62,3.1,9.63,9.64
				C-2425.68,1652.83-2425.67,1670.93-2425.73,1689.03z"/>
			<path class="st2" d="M-2378.48,1707.69c0.02-2.36-0.9-3.15-3.17-3.05c-3.05,0.14-6.12,0.14-9.17,0.01
				c-2.39-0.11-3.1,0.93-3.05,3.18c0.11,4.71-0.08,9.43,0.07,14.14c0.09,2.69-0.94,3.61-3.58,3.53c-4.71-0.14-9.43,0.05-14.14-0.07
				c-2.3-0.06-3.24,0.73-3.13,3.08c0.14,3.05,0.13,6.12-0.01,9.17c-0.1,2.3,0.75,3.19,3.08,3.14c4.97-0.11,9.94-0.03,14.9-0.03
				c4.97,0,9.94-0.06,14.9,0.03c2.13,0.04,3.31-0.44,3.29-2.93C-2378.56,1727.82-2378.56,1717.76-2378.48,1707.69z"/>
			<path class="st2" d="M-2593.29,1598.99c0,5.1,0.07,10.19-0.03,15.29c-0.04,2.3,0.82,3.2,3.14,3.1c3.05-0.14,6.12-0.15,9.17,0
				c2.36,0.11,3.15-0.87,3.1-3.14c-0.1-4.71,0.09-9.43-0.06-14.14c-0.08-2.62,0.79-3.68,3.5-3.58c4.45,0.16,8.92-0.09,13.37,0.09
				c2.88,0.12,4.3-0.63,4-3.82c-0.25-2.65-0.19-5.36-0.01-8.02c0.17-2.61-0.7-3.62-3.43-3.59c-9.81,0.12-19.62,0.1-29.43,0.01
				c-2.43-0.02-3.43,0.74-3.36,3.28C-2593.19,1589.3-2593.29,1594.14-2593.29,1598.99z"/>
			<path class="st2" d="M-2411.05,1596.59c4.45-0.15,8.93,0.14,13.37-0.09c3.13-0.16,4.01,1.06,3.89,4
				c-0.18,4.58,0.04,9.17-0.08,13.76c-0.06,2.31,0.77,3.22,3.11,3.11c3.05-0.14,6.12-0.13,9.17,0c2.33,0.1,3.17-0.81,3.12-3.11
				c-0.11-4.84-0.03-9.68-0.03-14.53c0-5.1-0.06-10.19,0.03-15.29c0.04-2.16-0.51-3.28-2.98-3.25c-10.06,0.09-20.13,0.1-30.2,0
				c-2.43-0.02-3.09,1-3,3.21c0.12,2.93,0.19,5.87-0.02,8.79C-2414.85,1596.02-2413.59,1596.67-2411.05,1596.59z"/>
			<path class="st2" d="M-2557.13,1728.49c0.11-2.37-0.89-3.12-3.16-3.07c-4.84,0.11-9.68-0.04-14.52,0.06
				c-2.3,0.05-3.2-0.83-3.15-3.13c0.1-4.84-0.06-9.68,0.05-14.52c0.05-2.27-0.68-3.27-3.06-3.17c-3.05,0.13-6.12,0.12-9.17,0
				c-2.25-0.09-3.22,0.66-3.2,3.04c0.08,10.06,0.07,20.13,0.02,30.2c-0.01,2.11,0.77,2.96,2.92,2.92
				c5.09-0.09,10.19-0.03,15.29-0.03c4.97,0,9.94-0.07,14.91,0.03c2.33,0.05,3.18-0.84,3.08-3.15
				C-2557.26,1734.61-2557.27,1731.54-2557.13,1728.49z"/>
		</g>
	</g>
</g>
<g>
	<g>
		<path class="st3" d="M511.98,548.74l20.31-50.77h19.28l-32.06,79.74h-15.06l-32.06-79.74h19.28L511.98,548.74z"/>
		<path class="st3" d="M561.03,497.98h17.8v79.74h-17.8V497.98z"/>
		<path class="st3" d="M659.37,508.41c7.6,6.96,11.41,16.64,11.41,29.03c0,12.4-3.71,22.21-11.12,29.43
			c-7.42,7.23-18.73,10.84-33.94,10.84h-27.27v-79.74h28.18C640.85,497.98,651.76,501.46,659.37,508.41z M646.31,555.81
			c4.37-4.11,6.56-10.08,6.56-17.91c0-7.83-2.19-13.86-6.56-18.08c-4.37-4.22-11.08-6.33-20.13-6.33h-9.92v48.48h11.29
			C635.68,561.97,641.93,559.92,646.31,555.81z"/>
		<path class="st3" d="M753.26,566.71c-8.06,7.87-17.99,11.81-29.77,11.81c-11.79,0-21.71-3.94-29.78-11.81
			c-8.06-7.87-12.09-17.66-12.09-29.38c0-11.71,4.03-21.5,12.09-29.38c8.06-7.87,17.99-11.81,29.78-11.81
			c11.79,0,21.71,3.94,29.77,11.81c8.06,7.87,12.09,17.66,12.09,29.38C765.35,549.05,761.32,558.84,753.26,566.71z M747.21,537.39
			c0-7.11-2.28-13.18-6.84-18.2c-4.56-5.02-10.17-7.53-16.83-7.53c-6.66,0-12.26,2.51-16.83,7.53c-4.56,5.02-6.84,11.09-6.84,18.2
			c0,7.11,2.28,13.16,6.84,18.14c4.56,4.98,10.17,7.47,16.83,7.47c6.65,0,12.26-2.49,16.83-7.47
			C744.93,550.55,747.21,544.5,747.21,537.39z"/>
		<path class="st3" d="M817.03,561.97c8.74,0,15.89-3.46,21.45-10.38l11.41,11.75c-9.05,10.19-19.72,15.29-32,15.29
			c-12.28,0-22.4-3.88-30.35-11.64c-7.95-7.76-11.92-17.55-11.92-29.38c0-11.82,4.05-21.69,12.15-29.6
			c8.1-7.91,18-11.86,29.72-11.86c13.08,0,24.03,4.98,32.85,14.94l-11.07,12.55c-5.63-7-12.62-10.5-20.99-10.5
			c-6.69,0-12.42,2.19-17.17,6.56c-4.75,4.37-7.13,10.27-7.13,17.68s2.24,13.37,6.73,17.85
			C805.2,559.73,810.64,561.97,817.03,561.97z"/>
	</g>
	<g>
		<g>
			<path class="st2" d="M412.6,511.29c-0.26-12.82-10.67-22.35-23.45-22.53c-3.57-0.05-7.14-0.01-10.72-0.01c-4.68,0-9.37,0-14.37,0
				c1.24-7.92,2.41-15.32,3.61-22.97c-5.68,0-11.08,0-16.65,0c-4.51,31.6-8.99,62.94-13.46,94.29c-0.31-0.04-0.62-0.07-0.94-0.11
				c-4.47-31.39-8.95-62.77-13.43-94.21c-5.72,0-11.01,0-16.65,0c1.2,7.68,2.35,15.06,3.59,23c-8.68,0-16.7-0.05-24.72,0.01
				c-13.55,0.1-23.82,10.18-23.9,23.69c-0.11,19.01-0.13,38.02,0.01,57.03c0.09,13.14,10.21,23.35,23.35,23.4
				c34.83,0.12,69.66,0.13,104.49,0c12.85-0.05,23.05-9.79,23.27-22.66C412.97,550.59,413,530.93,412.6,511.29z M321.39,577.62
				c-11.73,0.02-23.46,0.05-35.19-0.01c-6.06-0.03-9.32-3.14-9.35-9.14c-0.08-18.36-0.07-36.72,0-55.08
				c0.02-6.03,3.28-9.23,9.25-9.29c8.66-0.08,17.31-0.02,26.55-0.02c3.97,24.6,7.88,48.83,11.82,73.25
				C323.13,577.46,322.26,577.61,321.39,577.62z M397.27,568.03c-0.02,6.58-3.06,9.56-9.64,9.58c-11.47,0.04-22.94,0.02-34.42,0
				c-1,0-1.99-0.14-3.47-0.25c1.24-7.85,2.42-15.48,3.65-23.11c2.47-15.34,5.02-30.68,7.38-46.04c0.46-2.98,1.27-4.38,4.7-4.24
				c7.38,0.3,14.78,0.06,22.17,0.11c6.52,0.04,9.62,3.1,9.63,9.64C397.32,531.83,397.33,549.93,397.27,568.03z"/>
			<path class="st2" d="M444.52,586.69c0.02-2.36-0.89-3.15-3.17-3.05c-3.05,0.14-6.12,0.14-9.17,0.01
				c-2.39-0.11-3.1,0.93-3.05,3.18c0.11,4.71-0.08,9.43,0.07,14.14c0.09,2.69-0.94,3.61-3.58,3.53c-4.71-0.14-9.43,0.05-14.14-0.07
				c-2.3-0.06-3.24,0.73-3.13,3.08c0.14,3.05,0.13,6.12-0.01,9.17c-0.1,2.3,0.75,3.19,3.08,3.14c4.97-0.11,9.93-0.03,14.9-0.03
				c4.97,0,9.94-0.06,14.9,0.03c2.13,0.04,3.31-0.43,3.29-2.93C444.44,606.82,444.44,596.76,444.52,586.69z"/>
			<path class="st2" d="M229.71,477.99c0,5.1,0.07,10.19-0.03,15.29c-0.04,2.3,0.82,3.2,3.14,3.1c3.05-0.14,6.12-0.15,9.17,0
				c2.36,0.11,3.15-0.87,3.1-3.14c-0.1-4.71,0.09-9.43-0.06-14.14c-0.08-2.62,0.79-3.68,3.5-3.58c4.45,0.16,8.92-0.09,13.37,0.09
				c2.88,0.12,4.3-0.63,4-3.82c-0.25-2.65-0.19-5.36-0.01-8.02c0.17-2.61-0.7-3.62-3.43-3.59c-9.81,0.12-19.62,0.1-29.43,0.01
				c-2.43-0.02-3.43,0.74-3.36,3.28C229.81,468.3,229.71,473.14,229.71,477.99z"/>
			<path class="st2" d="M411.95,475.59c4.45-0.15,8.93,0.14,13.37-0.09c3.13-0.16,4.01,1.06,3.89,4c-0.18,4.58,0.04,9.17-0.08,13.76
				c-0.06,2.31,0.77,3.22,3.11,3.11c3.05-0.14,6.12-0.13,9.17,0c2.33,0.1,3.17-0.81,3.12-3.11c-0.11-4.84-0.03-9.68-0.03-14.53
				c0-5.1-0.06-10.19,0.03-15.29c0.04-2.16-0.51-3.28-2.98-3.25c-10.06,0.09-20.13,0.1-30.2,0c-2.43-0.02-3.09,1-3,3.21
				c0.12,2.93,0.19,5.87-0.01,8.79C408.15,475.02,409.41,475.67,411.95,475.59z"/>
			<path class="st2" d="M265.87,607.49c0.11-2.37-0.89-3.12-3.16-3.07c-4.84,0.11-9.68-0.04-14.52,0.06
				c-2.3,0.05-3.2-0.83-3.15-3.13c0.1-4.84-0.06-9.68,0.05-14.52c0.05-2.27-0.68-3.27-3.06-3.17c-3.05,0.13-6.12,0.12-9.17,0
				c-2.25-0.09-3.22,0.66-3.2,3.04c0.08,10.06,0.07,20.13,0.02,30.2c-0.01,2.11,0.77,2.96,2.92,2.92
				c5.09-0.09,10.19-0.03,15.29-0.03c4.97,0,9.94-0.07,14.91,0.03c2.33,0.05,3.18-0.84,3.08-3.15
				C265.74,613.61,265.73,610.54,265.87,607.49z"/>
		</g>
	</g>
</g>
<g>
	<g>
		<g>
			<path class="st0" d="M-1420.89,1620.65c-0.37-18.02-14.99-31.41-32.97-31.66c-5.02-0.07-10.04-0.01-15.06-0.01
				c-6.58,0-13.17,0-20.19,0c1.75-11.14,3.38-21.53,5.07-32.28c-7.98,0-15.57,0-23.41,0c-6.34,44.41-12.63,88.47-18.92,132.52
				c-0.44-0.05-0.88-0.1-1.32-0.15c-6.29-44.12-12.58-88.23-18.88-132.42c-8.04,0-15.48,0-23.4,0c1.68,10.79,3.3,21.17,5.04,32.33
				c-12.2,0-23.47-0.07-34.74,0.01c-19.04,0.14-33.48,14.31-33.59,33.3c-0.16,26.72-0.18,53.44,0.01,80.16
				c0.13,18.47,14.34,32.82,32.82,32.89c48.95,0.17,97.91,0.18,146.87,0c18.06-0.07,32.39-13.76,32.71-31.84
				C-1420.36,1675.89-1420.32,1648.25-1420.89,1620.65z M-1549.07,1713.87c-16.48,0.02-32.97,0.07-49.45-0.01
				c-8.51-0.04-13.11-4.41-13.14-12.85c-0.12-25.8-0.1-51.61,0-77.41c0.03-8.47,4.61-12.98,13-13.05
				c12.17-0.11,24.34-0.03,37.32-0.03c5.58,34.58,11.08,68.63,16.62,102.95C-1546.63,1713.65-1547.85,1713.87-1549.07,1713.87z
				 M-1442.43,1700.4c-0.03,9.25-4.31,13.44-13.54,13.47c-16.12,0.06-32.25,0.03-48.37,0.01c-1.4,0-2.8-0.19-4.87-0.35
				c1.74-11.03,3.4-21.76,5.13-32.48c3.47-21.57,7.06-43.11,10.37-64.7c0.64-4.19,1.79-6.16,6.6-5.96
				c10.37,0.43,20.78,0.09,31.17,0.15c9.16,0.05,13.52,4.36,13.54,13.55C-1442.35,1649.51-1442.35,1674.95-1442.43,1700.4z"/>
			<path class="st0" d="M-1376.02,1726.63c0.03-3.32-1.26-4.42-4.46-4.28c-4.29,0.19-8.6,0.2-12.89,0.01
				c-3.36-0.15-4.35,1.31-4.28,4.46c0.15,6.62-0.11,13.25,0.1,19.87c0.12,3.78-1.32,5.07-5.03,4.96c-6.62-0.2-13.25,0.07-19.87-0.09
				c-3.23-0.08-4.55,1.02-4.4,4.33c0.19,4.29,0.18,8.6-0.01,12.89c-0.14,3.24,1.05,4.49,4.33,4.41c6.98-0.16,13.96-0.05,20.95-0.05
				c6.98,0,13.97-0.08,20.95,0.04c2.99,0.05,4.66-0.61,4.62-4.11C-1376.13,1754.92-1376.13,1740.77-1376.02,1726.63z"/>
			<path class="st0" d="M-1677.94,1573.84c0,7.16,0.09,14.33-0.04,21.49c-0.06,3.24,1.15,4.5,4.41,4.35c4.29-0.2,8.6-0.2,12.89-0.01
				c3.32,0.15,4.42-1.22,4.36-4.41c-0.14-6.62,0.12-13.25-0.09-19.87c-0.12-3.69,1.12-5.17,4.92-5.03
				c6.26,0.23,12.54-0.12,18.8,0.13c4.04,0.17,6.04-0.88,5.62-5.37c-0.35-3.73-0.26-7.53-0.02-11.27c0.24-3.67-0.99-5.09-4.82-5.04
				c-13.78,0.17-27.57,0.14-41.36,0.01c-3.42-0.03-4.82,1.05-4.72,4.6C-1677.8,1560.23-1677.94,1567.03-1677.94,1573.84z"/>
			<path class="st0" d="M-1421.79,1570.47c6.26-0.21,12.55,0.2,18.8-0.13c4.4-0.23,5.63,1.49,5.47,5.62
				c-0.26,6.44,0.05,12.89-0.12,19.34c-0.08,3.25,1.09,4.52,4.37,4.37c4.29-0.19,8.6-0.19,12.89,0c3.27,0.15,4.46-1.14,4.39-4.37
				c-0.15-6.8-0.05-13.61-0.05-20.42c0-7.16-0.08-14.33,0.04-21.49c0.05-3.03-0.72-4.6-4.18-4.57c-14.15,0.13-28.29,0.13-42.44,0.01
				c-3.41-0.03-4.34,1.4-4.21,4.52c0.17,4.11,0.26,8.25-0.02,12.35C-1427.14,1569.66-1425.36,1570.59-1421.79,1570.47z"/>
			<path class="st0" d="M-1627.11,1755.86c0.15-3.34-1.25-4.38-4.44-4.31c-6.8,0.15-13.61-0.06-20.41,0.08
				c-3.24,0.07-4.49-1.17-4.43-4.41c0.13-6.8-0.08-13.61,0.08-20.41c0.07-3.19-0.96-4.6-4.29-4.45c-4.29,0.19-8.6,0.17-12.89,0
				c-3.16-0.13-4.53,0.93-4.5,4.27c0.12,14.15,0.1,28.29,0.03,42.44c-0.02,2.97,1.08,4.16,4.1,4.1c7.16-0.13,14.32-0.04,21.49-0.04
				c6.98,0,13.97-0.1,20.95,0.05c3.27,0.07,4.48-1.19,4.33-4.43C-1627.3,1764.46-1627.3,1760.15-1627.11,1755.86z"/>
		</g>
	</g>
</g>
<g>
	<g>
		<path class="st3" d="M-4648.62,1779.02h-19.39l-39.01-119.88h29.08l29.32,89.61l29.32-89.61h29.08l-39.01,119.88H-4648.62z"/>
		<path class="st3" d="M-4577.45,1632.42c0-3.47,0.04-6.07,0.12-7.8c0.08-1.73,0.55-2.99,1.42-3.78c0.86-0.79,2.28-1.22,4.26-1.3
			c1.97-0.08,4.85-0.12,8.63-0.12c3.78,0,6.66,0.04,8.63,0.12c1.97,0.08,3.39,0.51,4.26,1.3c0.86,0.79,1.34,2.05,1.42,3.78
			c0.08,1.74,0.12,4.34,0.12,7.8c0,3.47-0.04,6.07-0.12,7.8c-0.08,1.74-0.55,3-1.42,3.78c-0.87,0.79-2.29,1.22-4.26,1.3
			c-1.97,0.08-4.85,0.12-8.63,0.12c-3.78,0-6.66-0.04-8.63-0.12c-1.97-0.08-3.39-0.51-4.26-1.3c-0.87-0.79-1.34-2.05-1.42-3.78
			C-4577.41,1638.49-4577.45,1635.89-4577.45,1632.42z M-4548.6,1659.14v119.88h-28.85v-119.88H-4548.6z"/>
		<path class="st3" d="M-4450.24,1675.93v-56.51h28.14v99.54c0,8.2-0.79,15.37-2.36,21.52c-1.58,6.15-3.66,11.47-6.27,15.96
			c-2.6,4.49-5.56,8.2-8.87,11.11c-3.31,2.92-6.7,5.32-10.17,7.21c-8.2,4.26-17.42,6.46-27.66,6.62
			c-10.56-0.16-19.94-2.36-28.14-6.62c-3.47-1.89-6.9-4.29-10.29-7.21c-3.39-2.92-6.38-6.58-8.99-11c-2.6-4.41-4.69-9.69-6.27-15.84
			c-1.58-6.15-2.36-13.32-2.36-21.52c0-8.19,0.75-15.37,2.25-21.52c1.5-6.15,3.47-11.47,5.91-15.96c2.44-4.49,5.2-8.23,8.28-11.23
			c3.07-2.99,6.27-5.44,9.58-7.33c7.57-4.41,16.23-6.78,26.01-7.09c4.88,0.47,9.61,1.66,14.19,3.55c3.94,1.74,7.96,4.37,12.06,7.92
			c4.1,3.55,7.49,8.63,10.17,15.25L-4450.24,1675.93z M-4477.43,1754.43c5.83,0,10.52-1.18,14.07-3.55c3.55-2.36,6.3-5.32,8.28-8.87
			c1.97-3.55,3.27-7.37,3.9-11.47c0.63-4.1,0.95-7.88,0.95-11.35c0-3.47-0.32-7.25-0.95-11.35c-0.63-4.1-1.93-7.92-3.9-11.47
			c-1.97-3.55-4.73-6.5-8.28-8.87c-3.55-2.36-8.24-3.55-14.07-3.55c-5.83,0-10.52,1.18-14.07,3.55c-3.55,2.36-6.27,5.32-8.16,8.87
			s-3.16,7.37-3.78,11.47c-0.63,4.1-0.95,7.88-0.95,11.35c0,3.47,0.31,7.25,0.95,11.35c0.63,4.1,1.89,7.92,3.78,11.47
			c1.89,3.55,4.61,6.5,8.16,8.87C-4487.96,1753.24-4483.27,1754.43-4477.43,1754.43z"/>
		<path class="st3" d="M-4407.21,1719.2c0-8.19,0.79-15.37,2.36-21.52c1.57-6.15,3.67-11.47,6.27-15.96
			c2.6-4.49,5.59-8.23,8.98-11.23c3.39-2.99,6.82-5.44,10.29-7.33c8.19-4.41,17.57-6.78,28.14-7.09c10.4,0.32,19.7,2.68,27.9,7.09
			c3.47,1.89,6.89,4.34,10.29,7.33c3.39,3,6.38,6.74,8.99,11.23c2.6,4.49,4.73,9.81,6.38,15.96c1.66,6.15,2.48,13.32,2.48,21.52
			c0,8.2-0.83,15.37-2.48,21.52c-1.66,6.15-3.78,11.43-6.38,15.84c-2.6,4.42-5.6,8.08-8.99,11c-3.39,2.92-6.82,5.32-10.29,7.21
			c-8.2,4.26-17.5,6.46-27.9,6.62c-10.56-0.16-19.94-2.36-28.14-6.62c-3.47-1.89-6.9-4.29-10.29-7.21c-3.39-2.92-6.38-6.58-8.98-11
			c-2.6-4.41-4.69-9.69-6.27-15.84C-4406.42,1734.57-4407.21,1727.39-4407.21,1719.2z M-4351.17,1683.97
			c-5.83,0-10.52,1.18-14.07,3.55c-3.55,2.36-6.27,5.32-8.16,8.87c-1.89,3.55-3.16,7.37-3.78,11.47c-0.63,4.1-0.95,7.88-0.95,11.35
			c0,3.47,0.31,7.25,0.95,11.35c0.63,4.1,1.89,7.92,3.78,11.47c1.89,3.55,4.61,6.5,8.16,8.87c3.55,2.36,8.23,3.55,14.07,3.55
			c5.83,0,10.52-1.18,14.07-3.55c3.55-2.36,6.27-5.32,8.16-8.87c1.89-3.55,3.15-7.37,3.78-11.47c0.63-4.1,0.95-7.88,0.95-11.35
			c0-3.47-0.32-7.25-0.95-11.35c-0.63-4.1-1.89-7.92-3.78-11.47c-1.89-3.55-4.61-6.5-8.16-8.87
			C-4340.65,1685.15-4345.34,1683.97-4351.17,1683.97z"/>
		<path class="st3" d="M-4171,1704.06h-29.32c-0.79-2.52-1.77-5-2.96-7.45c-1.18-2.44-2.76-4.61-4.73-6.5
			c-1.97-1.89-4.37-3.39-7.21-4.49c-2.84-1.1-6.23-1.66-10.17-1.66c-5.83,0-10.52,1.18-14.07,3.55c-3.55,2.36-6.27,5.32-8.16,8.87
			c-1.89,3.55-3.16,7.37-3.78,11.47c-0.63,4.1-0.95,7.88-0.95,11.35c0,3.47,0.31,7.25,0.95,11.35c0.63,4.1,1.89,7.92,3.78,11.47
			c1.89,3.55,4.61,6.5,8.16,8.87c3.55,2.36,8.23,3.55,14.07,3.55c7.72,0,13.51-2.05,17.38-6.15c3.86-4.1,6.5-8.83,7.92-14.19h29.08
			c-0.95,6.31-2.48,11.79-4.61,16.43c-2.13,4.65-4.53,8.67-7.21,12.06c-2.68,3.39-5.6,6.19-8.75,8.39
			c-3.16,2.21-6.31,4.02-9.46,5.44c-7.41,3.31-15.53,4.97-24.35,4.97c-10.56-0.16-19.94-2.36-28.14-6.62
			c-3.47-1.89-6.9-4.29-10.29-7.21c-3.39-2.92-6.38-6.58-8.99-11c-2.6-4.41-4.69-9.69-6.27-15.84c-1.58-6.15-2.36-13.32-2.36-21.52
			c0-8.19,0.79-15.37,2.36-21.52c1.57-6.15,3.7-11.47,6.38-15.96c2.68-4.49,5.67-8.23,8.99-11.23c3.31-2.99,6.78-5.44,10.4-7.33
			c8.19-4.41,17.57-6.78,28.14-7.09c8.67,0.32,16.71,2.13,24.12,5.44c3.15,1.42,6.3,3.27,9.46,5.56c3.15,2.29,6.07,5.17,8.75,8.63
			c2.68,3.47,5.08,7.53,7.21,12.18C-4173.48,1692.52-4171.95,1697.92-4171,1704.06z"/>
	</g>
	<g>
		<path class="st4" d="M-4809.06,1607.19c0,0,16.26-41.74,61.65-44.26c45.39-2.52,65.57,27.74,65.57,27.74l-94.99,138.5
			l76.61-140.09l-7.13-4.32c-10.12-6.13-24.51-10.52-36.13-11.67C-4771.84,1570.29-4794.15,1583.26-4809.06,1607.19"/>
		<g>
			<defs>
				<path id="SVGID_1_" d="M-4836.54,1809.89l-45.25-82.75l-0.58-1.06v0l-73.2-133.86c0,0,56.31-34.18,89.81,19.58
					c14.43,23.16,41.88,79.8,68.46,136.76l-36.35,66.67l-0.02-0.05C-4834.64,1813.39-4835.59,1811.62-4836.54,1809.89"/>
			</defs>
			<clipPath id="SVGID_2_">
				<use xlink:href="#SVGID_1_"  style="overflow:visible;"/>
			</clipPath>
			<linearGradient id="SVGID_3_" gradientUnits="userSpaceOnUse" x1="-4608.4756" y1="1980.2408" x2="-5033.4966" y2="1514.537">
				<stop  offset="0" style="stop-color:#0000FF"/>
				<stop  offset="1" style="stop-color:#FF00FF"/>
			</linearGradient>
			<rect x="-4955.57" y="1558.03" class="st5" width="158.26" height="257.19"/>
		</g>
		<path class="st6" d="M-4836.54,1809.89l-37.1-67.85c11.54-24.67,23.25-49.3,35.35-73.7l1.31-2.64
			c12.21,24.56,26.05,53.66,39.67,82.85l-36.35,66.67l-0.03-0.05C-4834.64,1813.38-4835.59,1811.62-4836.54,1809.89"/>
		<path class="st6" d="M-4914.79,1611.41c28.94,35.19,45.52,75.04,68.24,130.9c6.83,16.79,14.21,35.02,22.65,55.01l5.46-10.02
			c-7.65-15.53-15.28-31.78-22.95-48.13c-10.32-22-20.7-44.2-31.28-65.09C-4888.37,1643.08-4902.66,1623.59-4914.79,1611.41"/>
		<path class="st7" d="M-4872.67,1674.08c5.33,10.52,10.6,21.37,15.85,32.36c6.09-12.74,12.26-25.45,18.53-38.09l1.31-2.64
			c-11.62-23.37-21.75-42.62-28.79-53.91c-33.5-53.76-89.81-19.58-89.81-19.58s15.8-5.88,40.78,19.2
			C-4902.66,1623.59-4888.37,1643.08-4872.67,1674.08"/>
		<path class="st7" d="M-4872.67,1674.08c5.33,10.52,10.6,21.37,15.85,32.36l1.51-3.16c-4.12-9.27-7.82-17.48-10.53-23.2
			c-12.05-25.49-35.8-55.67-23.15-66.9c12.66-11.22,30.23,15.4,40.98,36.01c1.81,3.48,5.12,10.3,9.52,19.53l0.19-0.39l1.31-2.64
			c-11.62-23.37-21.75-42.62-28.79-53.91c-33.5-53.76-89.81-19.58-89.81-19.58s15.8-5.88,40.78,19.2
			C-4902.66,1623.59-4888.37,1643.08-4872.67,1674.08"/>
		<g>
			<defs>
				<path id="SVGID_4_" d="M-4830.89,1809.89l48.95-89.51l0.02-0.03l70.07-128.13c0,0-56.31-34.18-89.81,19.58
					c-14.43,23.16-41.87,79.77-68.44,136.73l36.39,66.6C-4832.77,1813.35-4831.83,1811.6-4830.89,1809.89"/>
			</defs>
			<clipPath id="SVGID_5_">
				<use xlink:href="#SVGID_4_"  style="overflow:visible;"/>
			</clipPath>
			<linearGradient id="SVGID_6_" gradientUnits="userSpaceOnUse" x1="-5058.9785" y1="1980.222" x2="-4633.958" y2="1514.5188">
				<stop  offset="0" style="stop-color:#FF0000"/>
				<stop  offset="1" style="stop-color:#FFFF00"/>
			</linearGradient>
			<rect x="-4870.11" y="1558.03" class="st8" width="158.25" height="257.09"/>
		</g>
		<path class="st9" d="M-4752.64,1611.41c-28.93,35.19-45.52,75.04-68.24,130.9c-6.82,16.76-14.19,34.96-22.61,54.91l-5.46-10
			c7.64-15.51,15.26-31.73,22.91-48.06c10.32-22,20.7-44.2,31.28-65.09C-4779.07,1643.08-4764.77,1623.59-4752.64,1611.41"/>
		<path class="st10" d="M-4794.76,1674.08c-10.58,20.89-20.96,43.09-31.28,65.09c-7.66,16.33-15.28,32.55-22.91,48.06l-21.15-38.71
			c4.4-9.44,8.83-18.86,13.21-28.13c22.09-46.67,43.19-89.28,55.23-108.6c33.5-53.76,89.81-19.58,89.81-19.58s-15.8-5.88-40.78,19.2
			C-4764.77,1623.59-4779.07,1643.08-4794.76,1674.08"/>
		<path class="st7" d="M-4794.76,1674.08c-10.58,20.89-20.96,43.09-31.28,65.09c-6.51,13.89-13,27.71-19.5,41.07
			c0.25-0.58,31.94-74.77,43.95-100.16c12.05-25.49,35.8-55.68,23.15-66.9c-12.66-11.22-30.23,15.4-40.98,36.01
			c-5.69,10.91-26.07,54.68-48.8,102.76l-1.88-3.44c4.4-9.44,8.83-18.86,13.21-28.13c22.09-46.67,43.19-89.28,55.23-108.6
			c33.5-53.76,89.81-19.58,89.81-19.58s-15.8-5.88-40.78,19.2C-4764.77,1623.59-4779.07,1643.08-4794.76,1674.08"/>
		<path class="st11" d="M-4858.38,1607.19c0,0-16.26-41.74-61.65-44.26c-45.39-2.52-65.57,27.74-65.57,27.74l94.99,138.5
			l-76.61-140.09l7.13-4.32c10.12-6.13,24.51-10.52,36.13-11.67C-4895.59,1570.29-4873.29,1583.26-4858.38,1607.19"/>
		<rect x="-5039" y="1483.72" class="st12" width="410.57" height="410.57"/>
	</g>
</g>
<g>
	<g>
		<path class="st4" d="M-3801.34,1608.19c0,0,16.26-41.74,61.65-44.26c45.39-2.52,65.57,27.74,65.57,27.74l-94.99,138.5
			l76.61-140.09l-7.13-4.32c-10.12-6.13-24.51-10.52-36.13-11.67C-3764.12,1571.29-3786.43,1584.26-3801.34,1608.19"/>
		<g>
			<defs>
				<path id="SVGID_7_" d="M-3828.82,1810.89l-45.25-82.75l-0.58-1.06v0l-73.2-133.86c0,0,56.31-34.18,89.81,19.58
					c14.43,23.16,41.88,79.8,68.46,136.76l-36.35,66.67l-0.03-0.05C-3826.93,1814.39-3827.88,1812.62-3828.82,1810.89"/>
			</defs>
			<clipPath id="SVGID_8_">
				<use xlink:href="#SVGID_7_"  style="overflow:visible;"/>
			</clipPath>
			<linearGradient id="SVGID_9_" gradientUnits="userSpaceOnUse" x1="-3600.7588" y1="1981.2408" x2="-4025.7798" y2="1515.537">
				<stop  offset="0" style="stop-color:#0000FF"/>
				<stop  offset="1" style="stop-color:#FF00FF"/>
			</linearGradient>
			<rect x="-3947.86" y="1559.03" class="st13" width="158.26" height="257.19"/>
		</g>
		<path class="st6" d="M-3828.82,1810.89l-37.1-67.85c11.54-24.67,23.25-49.3,35.35-73.7l1.31-2.64
			c12.21,24.56,26.05,53.66,39.67,82.85l-36.35,66.67l-0.03-0.05C-3826.93,1814.38-3827.88,1812.62-3828.82,1810.89"/>
		<path class="st6" d="M-3907.07,1612.41c28.94,35.19,45.52,75.04,68.24,130.9c6.83,16.79,14.21,35.02,22.65,55.01l5.46-10.02
			c-7.65-15.53-15.28-31.78-22.95-48.13c-10.32-22-20.7-44.2-31.28-65.09C-3880.65,1644.08-3894.94,1624.59-3907.07,1612.41"/>
		<path class="st7" d="M-3864.95,1675.08c5.33,10.52,10.6,21.37,15.85,32.36c6.09-12.74,12.26-25.45,18.53-38.09l1.31-2.64
			c-11.62-23.37-21.75-42.62-28.79-53.91c-33.5-53.76-89.81-19.58-89.81-19.58s15.8-5.88,40.78,19.2
			C-3894.94,1624.59-3880.65,1644.08-3864.95,1675.08"/>
		<path class="st7" d="M-3864.95,1675.08c5.33,10.52,10.6,21.37,15.85,32.36l1.51-3.16c-4.12-9.27-7.82-17.48-10.53-23.2
			c-12.05-25.49-35.8-55.67-23.15-66.9c12.66-11.22,30.23,15.4,40.98,36.01c1.81,3.48,5.12,10.3,9.52,19.53l0.19-0.39l1.31-2.64
			c-11.62-23.37-21.75-42.62-28.79-53.91c-33.5-53.76-89.81-19.58-89.81-19.58s15.8-5.88,40.78,19.2
			C-3894.94,1624.59-3880.65,1644.08-3864.95,1675.08"/>
		<g>
			<defs>
				<path id="SVGID_10_" d="M-3823.17,1810.89l48.95-89.51l0.02-0.03l70.07-128.13c0,0-56.31-34.18-89.81,19.58
					c-14.43,23.16-41.87,79.77-68.44,136.73l36.39,66.6C-3825.05,1814.35-3824.11,1812.6-3823.17,1810.89"/>
			</defs>
			<clipPath id="SVGID_11_">
				<use xlink:href="#SVGID_10_"  style="overflow:visible;"/>
			</clipPath>
			<linearGradient id="SVGID_12_" gradientUnits="userSpaceOnUse" x1="-4051.2617" y1="1981.222" x2="-3626.2412" y2="1515.5188">
				<stop  offset="0" style="stop-color:#FF0000"/>
				<stop  offset="1" style="stop-color:#FFFF00"/>
			</linearGradient>
			<rect x="-3862.39" y="1559.03" class="st14" width="158.25" height="257.09"/>
		</g>
		<path class="st9" d="M-3744.93,1612.41c-28.93,35.19-45.52,75.04-68.24,130.9c-6.82,16.76-14.19,34.96-22.61,54.91l-5.46-10
			c7.64-15.51,15.26-31.73,22.91-48.06c10.32-22,20.7-44.2,31.28-65.09C-3771.35,1644.08-3757.06,1624.59-3744.93,1612.41"/>
		<path class="st10" d="M-3787.05,1675.08c-10.58,20.89-20.96,43.09-31.28,65.09c-7.66,16.33-15.28,32.55-22.91,48.06l-21.15-38.71
			c4.4-9.44,8.83-18.86,13.21-28.13c22.09-46.67,43.19-89.28,55.23-108.6c33.5-53.76,89.81-19.58,89.81-19.58s-15.8-5.88-40.78,19.2
			C-3757.06,1624.59-3771.35,1644.08-3787.05,1675.08"/>
		<path class="st7" d="M-3787.05,1675.08c-10.58,20.89-20.96,43.09-31.28,65.09c-6.51,13.89-13,27.71-19.5,41.07
			c0.25-0.58,31.95-74.77,43.95-100.16c12.05-25.49,35.8-55.68,23.15-66.9c-12.66-11.22-30.23,15.4-40.98,36.01
			c-5.69,10.91-26.07,54.68-48.8,102.76l-1.88-3.44c4.4-9.44,8.83-18.86,13.21-28.13c22.09-46.67,43.19-89.28,55.23-108.6
			c33.5-53.76,89.81-19.58,89.81-19.58s-15.8-5.88-40.78,19.2C-3757.06,1624.59-3771.35,1644.08-3787.05,1675.08"/>
		<path class="st11" d="M-3850.66,1608.19c0,0-16.26-41.74-61.65-44.26c-45.39-2.52-65.57,27.74-65.57,27.74l94.99,138.5
			l-76.61-140.09l7.13-4.32c10.12-6.13,24.51-10.52,36.13-11.67C-3887.88,1571.29-3865.57,1584.26-3850.66,1608.19"/>
		<rect x="-4031.28" y="1484.72" class="st12" width="410.57" height="410.57"/>
	</g>
</g>
</svg>